<?xml version="1.0" standalone="no"?>
<!DOCTYPE svg PUBLIC "-//W3C//DTD SVG 20010904//EN"
 "http://www.w3.org/TR/2001/REC-SVG-20010904/DTD/svg10.dtd">
<svg version="1.0" xmlns="http://www.w3.org/2000/svg"
 width="512.000000pt" height="512.000000pt" viewBox="0 0 512.000000 512.000000"
 preserveAspectRatio="xMidYMid meet">

<g transform="translate(0.000000,512.000000) scale(0.100000,-0.100000)"
fill="#000000" stroke="none">
<path d="M3827 4923 c-4 -3 -7 -271 -7 -595 l0 -588 -120 0 c-140 0 -174 -10
-216 -66 l-29 -37 -3 -1284 -2 -1283 -64 0 c-55 0 -67 -3 -90 -26 -23 -24 -26
-34 -26 -96 0 -123 24 -138 220 -138 l130 0 -2 -212 -3 -213 -97 -5 c-125 -6
-132 -12 -136 -120 -4 -77 -3 -80 26 -110 l30 -30 447 0 447 0 30 30 c29 30
30 33 26 110 -4 108 -11 114 -136 120 l-97 5 -3 213 -2 212 130 0 c196 0 220
15 220 138 0 62 -3 72 -26 96 -23 23 -35 26 -90 26 l-64 0 -2 1283 -3 1284
-29 37 c-42 56 -76 66 -216 66 l-120 0 0 543 0 543 -53 52 c-54 54 -59 57 -70
45z m366 -1265 c12 -6 27 -18 34 -27 10 -12 12 -304 13 -1288 l0 -1273 -355 0
-355 0 0 90 0 90 114 0 c122 0 141 7 134 52 -3 22 -6 23 -125 26 l-123 3 0
159 0 160 114 0 c122 0 141 7 134 52 -3 22 -6 23 -125 26 l-123 3 0 159 0 160
114 0 c122 0 141 7 134 52 -3 22 -6 23 -125 26 l-123 3 0 159 0 160 114 0
c122 0 141 7 134 52 -3 22 -6 23 -125 26 l-123 3 0 159 0 160 114 0 c122 0
141 7 134 52 -3 22 -6 23 -125 26 l-123 3 0 159 0 160 114 0 c122 0 141 7 134
52 -3 22 -6 23 -125 26 l-123 3 0 142 c1 147 4 162 45 185 28 16 588 17 618 0z
m-113 -3058 l0 -210 -195 0 -195 0 0 210 0 210 195 0 195 0 0 -210z"/>
<path d="M1703 4799 c-268 -32 -510 -148 -709 -341 -153 -148 -258 -318 -322
-518 -58 -181 -57 -167 -57 -1380 0 -1214 -1 -1199 57 -1380 139 -434 488
-748 943 -846 111 -24 361 -24 468 0 250 55 463 171 637 345 146 147 241 301
304 496 57 175 56 160 56 1385 0 1225 0 1214 -57 1389 -118 363 -403 656 -761
785 -155 56 -401 84 -559 65z m107 -109 l0 -40 -87 0 c-67 0 -96 -5 -129 -20
-60 -29 -121 -100 -136 -156 -11 -41 -18 -49 -63 -71 -226 -115 -411 -334
-485 -575 -20 -67 -26 -75 -62 -93 -82 -40 -137 -132 -138 -230 0 -119 44
-196 142 -249 55 -30 59 -35 89 -108 62 -154 207 -333 344 -425 204 -137 448
-201 660 -173 50 6 108 14 131 17 77 10 269 -90 396 -206 137 -126 243 -323
277 -515 17 -93 14 -649 -3 -738 -70 -357 -341 -629 -698 -699 -94 -19 -326
-16 -423 5 -157 35 -285 88 -410 170 -267 179 -448 455 -506 776 -20 110 -20
2290 0 2400 98 539 534 929 1084 969 13 1 17 -7 17 -39z m226 25 c170 -30 329
-93 466 -186 265 -180 458 -496 497 -814 15 -125 15 -2185 0 -2310 -23 -187
-104 -389 -217 -541 -76 -103 -105 -127 -63 -53 48 86 90 212 106 318 20 132
20 581 0 711 -47 313 -241 585 -519 731 l-84 44 79 41 c146 76 277 192 367
326 37 53 112 205 112 225 0 7 22 24 49 37 70 36 106 70 135 128 37 73 37 173
0 246 -27 54 -93 119 -131 128 -17 5 -26 21 -43 77 -70 231 -248 449 -464 567
-67 37 -73 43 -84 86 -9 33 -27 60 -65 98 -61 61 -103 76 -211 76 l-76 0 0 40
c0 37 2 40 29 40 15 0 68 -7 117 -15z m-576 -409 c16 -48 82 -120 133 -145 40
-19 61 -21 246 -21 127 0 218 4 243 12 53 16 122 78 149 136 12 26 23 48 25
50 5 7 71 -32 134 -79 160 -118 268 -272 330 -469 25 -81 29 -86 71 -108 60
-32 88 -59 110 -107 46 -100 0 -217 -104 -260 -23 -9 -48 -20 -56 -24 -8 -4
-22 -30 -32 -59 -152 -446 -654 -710 -1102 -578 -285 84 -491 272 -607 553
-32 78 -38 86 -72 98 -56 19 -85 41 -116 87 -22 34 -27 53 -27 104 0 53 4 69
30 105 18 26 53 56 84 74 49 27 55 35 68 80 55 196 172 374 324 491 57 44 137
94 151 94 3 0 12 -15 18 -34z"/>
<path d="M1434 3674 c-42 -21 -59 -56 -59 -123 1 -70 23 -107 76 -122 77 -24
139 32 139 124 0 62 -23 105 -65 123 -43 17 -52 17 -91 -2z"/>
<path d="M2173 3676 c-41 -18 -63 -62 -63 -123 0 -62 17 -93 62 -117 31 -17
41 -18 76 -8 56 17 76 52 77 129 0 56 -3 66 -30 93 -36 36 -79 45 -122 26z"/>
</g>
</svg>
